<?xml version="1.0" encoding="UTF-8"?><svg xmlns="http://www.w3.org/2000/svg" xmlns:xlink="http://www.w3.org/1999/xlink" fill-opacity="1" color-rendering="auto" color-interpolation="auto" text-rendering="auto" stroke="black" stroke-linecap="square" width="995" stroke-miterlimit="10" shape-rendering="auto" stroke-opacity="1" fill="black" stroke-dasharray="none" font-weight="normal" stroke-width="1" height="935" font-family="'Dialog'" font-style="normal" stroke-linejoin="miter" font-size="12px" stroke-dashoffset="0" image-rendering="auto">
  <!--Generated by ySVG 2.5-->
  <defs id="genericDefs"/>
  <g>
    <g fill="white" text-rendering="geometricPrecision" shape-rendering="geometricPrecision" transform="translate(15,940)" stroke="white">
      <rect x="-15" width="995" height="935" y="-940" clip-path="url(#clipPath2)" stroke="none"/>
    </g>
    <g fill="rgb(255,204,0)" text-rendering="geometricPrecision" shape-rendering="geometricPrecision" transform="matrix(1,0,0,1,15,940)" stroke="rgb(255,204,0)">
      <rect x="472.8546" width="49.456" height="47.408" y="-193.3223" clip-path="url(#clipPath2)" stroke="none"/>
    </g>
    <g text-rendering="geometricPrecision" stroke-miterlimit="1.45" shape-rendering="geometricPrecision" font-family="sans-serif" transform="matrix(1,0,0,1,15,940)" stroke-linecap="butt">
      <text x="484.3228" xml:space="preserve" y="-165.462" clip-path="url(#clipPath2)" stroke="none">Text</text>
      <rect fill="none" x="472.8546" width="49.456" height="47.408" y="-193.3223" clip-path="url(#clipPath2)"/>
    </g>
    <g fill="url(#linearGradient1)" text-rendering="geometricPrecision" shape-rendering="geometricPrecision" transform="matrix(1,0,0,1,15,940)" stroke="url(#linearGradient1)">
      <path d="M567.3105 -534.6671 L707.9666 -534.6671 Q717.9666 -514.6671 707.9666 -494.6671 L567.3105 -494.6671 Q557.3105 -514.6671 567.3105 -534.6671 Z" stroke="none" clip-path="url(#clipPath2)"/>
    </g>
    <g text-rendering="geometricPrecision" stroke-miterlimit="1.45" shape-rendering="geometricPrecision" transform="matrix(1,0,0,1,15,940)" stroke-linecap="butt">
      <path fill="none" d="M567.3105 -534.6671 L707.9666 -534.6671 Q717.9666 -514.6671 707.9666 -494.6671 L567.3105 -494.6671 Q557.3105 -514.6671 567.3105 -534.6671 Z" clip-path="url(#clipPath2)"/>
      <path fill="none" d="M707.9666 -534.6671 Q697.9666 -514.6671 707.9666 -494.6671" clip-path="url(#clipPath2)"/>
      <text x="593.9393" xml:space="preserve" y="-510.5108" clip-path="url(#clipPath2)" font-family="sans-serif" stroke="none">De-duplication	</text>
    </g>
    <g fill="rgb(255,204,0)" text-rendering="geometricPrecision" shape-rendering="geometricPrecision" transform="matrix(1,0,0,1,15,940)" stroke="rgb(255,204,0)">
      <rect x="472.8546" width="49.456" height="47.408" y="-538.3711" clip-path="url(#clipPath2)" stroke="none"/>
    </g>
    <g text-rendering="geometricPrecision" stroke-miterlimit="1.45" shape-rendering="geometricPrecision" font-family="sans-serif" transform="matrix(1,0,0,1,15,940)" stroke-linecap="butt">
      <text x="480.5289" xml:space="preserve" y="-510.5108" clip-path="url(#clipPath2)" stroke="none">Audio</text>
      <rect fill="none" x="472.8546" width="49.456" height="47.408" y="-538.3711" clip-path="url(#clipPath2)"/>
    </g>
    <g fill="rgb(255,204,0)" text-rendering="geometricPrecision" shape-rendering="geometricPrecision" transform="matrix(1,0,0,1,15,940)" stroke="rgb(255,204,0)">
      <rect x="472.8546" width="49.456" height="47.408" y="-615.7794" clip-path="url(#clipPath2)" stroke="none"/>
    </g>
    <g text-rendering="geometricPrecision" stroke-miterlimit="1.45" shape-rendering="geometricPrecision" font-family="sans-serif" transform="matrix(1,0,0,1,15,940)" stroke-linecap="butt">
      <text x="480.6402" xml:space="preserve" y="-587.9191" clip-path="url(#clipPath2)" stroke="none">Video</text>
      <rect fill="none" x="472.8546" width="49.456" height="47.408" y="-615.7794" clip-path="url(#clipPath2)"/>
    </g>
    <g fill="rgb(255,204,0)" text-rendering="geometricPrecision" shape-rendering="geometricPrecision" transform="matrix(1,0,0,1,15,940)" stroke="rgb(255,204,0)">
      <rect x="472.8546" width="49.456" height="47.408" y="-924.1711" clip-path="url(#clipPath2)" stroke="none"/>
    </g>
    <g text-rendering="geometricPrecision" stroke-miterlimit="1.45" shape-rendering="geometricPrecision" font-family="sans-serif" transform="matrix(1,0,0,1,15,940)" stroke-linecap="butt">
      <text x="475.6656" xml:space="preserve" y="-896.3108" clip-path="url(#clipPath2)" stroke="none">Images</text>
      <rect fill="none" x="472.8546" width="49.456" height="47.408" y="-924.1711" clip-path="url(#clipPath2)"/>
    </g>
    <g fill="rgb(255,204,0)" text-rendering="geometricPrecision" shape-rendering="geometricPrecision" transform="matrix(1,0,0,1,15,940)" stroke="rgb(255,204,0)">
      <path d="M208.8546 -60.1091 L249.8546 -100.218 L290.8546 -60.1091 L249.8546 -20.0003 Z" fill-rule="evenodd" clip-path="url(#clipPath2)" stroke="none"/>
    </g>
    <g text-rendering="geometricPrecision" stroke-miterlimit="1.45" shape-rendering="geometricPrecision" font-family="sans-serif" transform="matrix(1,0,0,1,15,940)" stroke-linecap="butt">
      <text x="228.752" xml:space="preserve" y="-55.9529" clip-path="url(#clipPath2)" stroke="none">Twitter</text>
      <path fill="none" d="M208.8546 -60.1091 L249.8546 -100.218 L290.8546 -60.1091 L249.8546 -20.0003 Z" clip-path="url(#clipPath2)" fill-rule="evenodd"/>
    </g>
    <g fill="rgb(255,204,0)" text-rendering="geometricPrecision" shape-rendering="geometricPrecision" transform="matrix(1,0,0,1,15,940)" stroke="rgb(255,204,0)">
      <path d="M208.8546 -278.8186 L249.8546 -318.619 L290.8546 -278.8186 L249.8546 -239.0183 Z" fill-rule="evenodd" clip-path="url(#clipPath2)" stroke="none"/>
    </g>
    <g text-rendering="geometricPrecision" stroke-miterlimit="1.45" shape-rendering="geometricPrecision" font-family="sans-serif" transform="matrix(1,0,0,1,15,940)" stroke-linecap="butt">
      <text x="221.1114" xml:space="preserve" y="-274.6624" clip-path="url(#clipPath2)" stroke="none">Facebook</text>
      <path fill="none" d="M208.8546 -278.8186 L249.8546 -318.619 L290.8546 -278.8186 L249.8546 -239.0183 Z" clip-path="url(#clipPath2)" fill-rule="evenodd"/>
    </g>
    <g fill="rgb(255,204,0)" text-rendering="geometricPrecision" shape-rendering="geometricPrecision" transform="matrix(1,0,0,1,15,940)" stroke="rgb(255,204,0)">
      <path d="M208.8546 -169.6182 L249.8546 -209.0182 L290.8546 -169.6182 L249.8546 -130.2182 Z" fill-rule="evenodd" clip-path="url(#clipPath2)" stroke="none"/>
    </g>
    <g text-rendering="geometricPrecision" stroke-miterlimit="1.45" shape-rendering="geometricPrecision" font-family="sans-serif" transform="matrix(1,0,0,1,15,940)" stroke-linecap="butt">
      <text x="216.1895" xml:space="preserve" y="-165.462" clip-path="url(#clipPath2)" stroke="none">Newspaper</text>
      <path fill="none" d="M208.8546 -169.6182 L249.8546 -209.0182 L290.8546 -169.6182 L249.8546 -130.2182 Z" clip-path="url(#clipPath2)" fill-rule="evenodd"/>
    </g>
    <g fill="rgb(255,204,0)" text-rendering="geometricPrecision" shape-rendering="geometricPrecision" transform="matrix(1,0,0,1,15,940)" stroke="rgb(255,204,0)">
      <path d="M350.8546 -358.3191 L391.8546 -397.7191 L432.8546 -358.3191 L391.8546 -318.919 Z" fill-rule="evenodd" clip-path="url(#clipPath2)" stroke="none"/>
    </g>
    <g text-rendering="geometricPrecision" stroke-miterlimit="1.45" shape-rendering="geometricPrecision" font-family="sans-serif" transform="matrix(1,0,0,1,15,940)" stroke-linecap="butt">
      <text x="365.7481" xml:space="preserve" y="-354.1628" clip-path="url(#clipPath2)" stroke="none">YouTube</text>
      <path fill="none" d="M350.8546 -358.3191 L391.8546 -397.7191 L432.8546 -358.3191 L391.8546 -318.919 Z" clip-path="url(#clipPath2)" fill-rule="evenodd"/>
    </g>
    <g fill="rgb(255,204,0)" text-rendering="geometricPrecision" shape-rendering="geometricPrecision" transform="matrix(1,0,0,1,15,940)" stroke="rgb(255,204,0)">
      <path d="M350.8546 -467.119 L391.8546 -506.519 L432.8546 -467.119 L391.8546 -427.7191 Z" fill-rule="evenodd" clip-path="url(#clipPath2)" stroke="none"/>
    </g>
    <g text-rendering="geometricPrecision" stroke-miterlimit="1.45" shape-rendering="geometricPrecision" font-family="sans-serif" transform="matrix(1,0,0,1,15,940)" stroke-linecap="butt">
      <text x="356.713" xml:space="preserve" y="-462.9628" clip-path="url(#clipPath2)" stroke="none">Soundcloud</text>
      <path fill="none" d="M350.8546 -467.119 L391.8546 -506.519 L432.8546 -467.119 L391.8546 -427.7191 Z" clip-path="url(#clipPath2)" fill-rule="evenodd"/>
    </g>
    <g fill="rgb(255,204,0)" text-rendering="geometricPrecision" shape-rendering="geometricPrecision" transform="matrix(1,0,0,1,15,940)" stroke="rgb(255,204,0)">
      <path d="M208.8546 -427.419 L249.8546 -466.819 L290.8546 -427.419 L249.8546 -388.019 Z" fill-rule="evenodd" clip-path="url(#clipPath2)" stroke="none"/>
    </g>
    <g text-rendering="geometricPrecision" stroke-miterlimit="1.45" shape-rendering="geometricPrecision" font-family="sans-serif" transform="matrix(1,0,0,1,15,940)" stroke-linecap="butt">
      <text x="230.8409" xml:space="preserve" y="-430.2472" clip-path="url(#clipPath2)" stroke="none">Radio/</text>
      <text x="219.6553" xml:space="preserve" y="-416.2784" clip-path="url(#clipPath2)" stroke="none">Television</text>
      <path fill="none" d="M208.8546 -427.419 L249.8546 -466.819 L290.8546 -427.419 L249.8546 -388.019 Z" clip-path="url(#clipPath2)" fill-rule="evenodd"/>
    </g>
    <g fill="rgb(255,204,0)" text-rendering="geometricPrecision" shape-rendering="geometricPrecision" transform="matrix(1,0,0,1,15,940)" stroke="rgb(255,204,0)">
      <path d="M350.8546 -585.919 L391.8546 -625.319 L432.8546 -585.919 L391.8546 -546.519 Z" fill-rule="evenodd" clip-path="url(#clipPath2)" stroke="none"/>
    </g>
    <g text-rendering="geometricPrecision" stroke-miterlimit="1.45" shape-rendering="geometricPrecision" font-family="sans-serif" transform="matrix(1,0,0,1,15,940)" stroke-linecap="butt">
      <text x="365.7481" xml:space="preserve" y="-581.7628" clip-path="url(#clipPath2)" stroke="none">YouTube</text>
      <path fill="none" d="M350.8546 -585.919 L391.8546 -625.319 L432.8546 -585.919 L391.8546 -546.519 Z" clip-path="url(#clipPath2)" fill-rule="evenodd"/>
    </g>
    <g fill="rgb(255,204,0)" text-rendering="geometricPrecision" shape-rendering="geometricPrecision" transform="matrix(1,0,0,1,15,940)" stroke="rgb(255,204,0)">
      <path d="M208.8546 -665.019 L249.8546 -704.4191 L290.8546 -665.019 L249.8546 -625.619 Z" fill-rule="evenodd" clip-path="url(#clipPath2)" stroke="none"/>
    </g>
    <g text-rendering="geometricPrecision" stroke-miterlimit="1.45" shape-rendering="geometricPrecision" font-family="sans-serif" transform="matrix(1,0,0,1,15,940)" stroke-linecap="butt">
      <text x="222.0987" xml:space="preserve" y="-660.8628" clip-path="url(#clipPath2)" stroke="none">instachat</text>
      <path fill="none" d="M208.8546 -665.019 L249.8546 -704.4191 L290.8546 -665.019 L249.8546 -625.619 Z" clip-path="url(#clipPath2)" fill-rule="evenodd"/>
    </g>
    <g fill="rgb(255,204,0)" text-rendering="geometricPrecision" shape-rendering="geometricPrecision" transform="matrix(1,0,0,1,15,940)" stroke="rgb(255,204,0)">
      <path d="M208.8546 -546.2191 L249.8546 -585.6191 L290.8546 -546.2191 L249.8546 -506.819 Z" fill-rule="evenodd" clip-path="url(#clipPath2)" stroke="none"/>
    </g>
    <g text-rendering="geometricPrecision" stroke-miterlimit="1.45" shape-rendering="geometricPrecision" font-family="sans-serif" transform="matrix(1,0,0,1,15,940)" stroke-linecap="butt">
      <text x="219.6553" xml:space="preserve" y="-542.0628" clip-path="url(#clipPath2)" stroke="none">Television</text>
      <path fill="none" d="M208.8546 -546.2191 L249.8546 -585.6191 L290.8546 -546.2191 L249.8546 -506.819 Z" clip-path="url(#clipPath2)" fill-rule="evenodd"/>
    </g>
    <g fill="rgb(255,204,0)" text-rendering="geometricPrecision" shape-rendering="geometricPrecision" transform="matrix(1,0,0,1,15,940)" stroke="rgb(255,204,0)">
      <path d="M350.8546 -744.119 L391.8546 -783.519 L432.8546 -744.119 L391.8546 -704.7191 Z" fill-rule="evenodd" clip-path="url(#clipPath2)" stroke="none"/>
    </g>
    <g text-rendering="geometricPrecision" stroke-miterlimit="1.45" shape-rendering="geometricPrecision" font-family="sans-serif" transform="matrix(1,0,0,1,15,940)" stroke-linecap="butt">
      <text x="378.422" xml:space="preserve" y="-739.9628" clip-path="url(#clipPath2)" stroke="none">Web</text>
      <path fill="none" d="M350.8546 -744.119 L391.8546 -783.519 L432.8546 -744.119 L391.8546 -704.7191 Z" clip-path="url(#clipPath2)" fill-rule="evenodd"/>
    </g>
    <g fill="rgb(255,204,0)" text-rendering="geometricPrecision" shape-rendering="geometricPrecision" transform="matrix(1,0,0,1,15,940)" stroke="rgb(255,204,0)">
      <path d="M350.8546 -852.9191 L391.8546 -892.319 L432.8546 -852.9191 L391.8546 -813.519 Z" fill-rule="evenodd" clip-path="url(#clipPath2)" stroke="none"/>
    </g>
    <g text-rendering="geometricPrecision" stroke-miterlimit="1.45" shape-rendering="geometricPrecision" font-family="sans-serif" transform="matrix(1,0,0,1,15,940)" stroke-linecap="butt">
      <text x="374.9122" xml:space="preserve" y="-848.7628" clip-path="url(#clipPath2)" stroke="none">Video</text>
      <path fill="none" d="M350.8546 -852.9191 L391.8546 -892.319 L432.8546 -852.9191 L391.8546 -813.519 Z" clip-path="url(#clipPath2)" fill-rule="evenodd"/>
    </g>
    <g fill="rgb(255,204,0)" text-rendering="geometricPrecision" shape-rendering="geometricPrecision" transform="matrix(1,0,0,1,15,940)" stroke="rgb(255,204,0)">
      <path d="M197.6046 -801.3441 L249.8546 -852.6191 L302.1046 -801.3441 L249.8546 -750.0691 Z" fill-rule="evenodd" clip-path="url(#clipPath2)" stroke="none"/>
    </g>
    <g text-rendering="geometricPrecision" stroke-miterlimit="1.45" shape-rendering="geometricPrecision" font-family="sans-serif" transform="matrix(1,0,0,1,15,940)" stroke-linecap="butt">
      <text x="219.6553" xml:space="preserve" y="-811.1566" clip-path="url(#clipPath2)" stroke="none">Television</text>
      <text x="216.1895" xml:space="preserve" y="-797.1878" clip-path="url(#clipPath2)" stroke="none">Newspaper</text>
      <text x="221.2052" xml:space="preserve" y="-783.2191" clip-path="url(#clipPath2)" stroke="none">Magazine</text>
      <path fill="none" d="M197.6046 -801.3441 L249.8546 -852.6191 L302.1046 -801.3441 L249.8546 -750.0691 Z" clip-path="url(#clipPath2)" fill-rule="evenodd"/>
    </g>
    <g fill="rgb(255,204,0)" text-rendering="geometricPrecision" shape-rendering="geometricPrecision" transform="matrix(1,0,0,1,15,940)" stroke="rgb(255,204,0)">
      <rect x="0" width="157.6046" height="162.7538" y="-597.896" clip-path="url(#clipPath2)" stroke="none"/>
    </g>
    <g text-rendering="geometricPrecision" stroke-miterlimit="1.45" shape-rendering="geometricPrecision" font-family="sans-serif" transform="matrix(1,0,0,1,15,940)" stroke-linecap="butt">
      <text x="48.1285" xml:space="preserve" y="-519.3472" clip-path="url(#clipPath2)" stroke="none">Candidate</text>
      <text x="31.5113" xml:space="preserve" y="-505.3784" clip-path="url(#clipPath2)" stroke="none">Communication</text>
      <rect fill="none" x="0" width="157.6046" height="162.7538" y="-597.896" clip-path="url(#clipPath2)"/>
    </g>
    <g text-rendering="geometricPrecision" shape-rendering="geometricPrecision" transform="matrix(1,0,0,1,929.6265,401.5264)">
      <g clip-path="url(#clipPath3)">
        <svg xml:space="preserve" opacity="1" writing-mode="lr-tb" stop-color="rgb(0, 0, 0)" shape-rendering="auto" glyph-orientation-horizontal="0deg" color-profile="auto" lighting-color="rgb(255, 255, 255)" color="rgb(0, 0, 0)" font-weight="400" alignment-baseline="auto" font-style="normal" version="1.1" color-interpolation-filters="linearrgb" text-anchor="start" stroke-linecap="butt" color-interpolation="srgb" font-variant="normal" word-spacing="normal" fill-opacity="1" text-rendering="auto" clip-path="none" text-decoration="none" letter-spacing="normal" viewBox="0 0 40 48" glyph-orientation-vertical="auto" display="inline" font-size-adjust="none" overflow="visible" fill="rgb(0, 0, 0)" font-stretch="normal" stroke-dasharray="none" stroke-miterlimit="4" stop-opacity="1" color-rendering="auto" font-size="12" pointer-events="visiblepainted" mask="none" direction="ltr" baseline-shift="baseline" enable-background="new 0 0 40 48" fill-rule="nonzero" image-rendering="auto" stroke-dashoffset="0" width="40px" marker-end="none" clip="auto" cursor="auto" stroke="none" filter="none" visibility="visible" kerning="auto" stroke-width="1" font-family="&quot;Arial&quot;,&quot;Helvetica&quot;,sans-serif" flood-opacity="1" clip-rule="nonzero" src="none" height="48px" unicode-bidi="normal" stroke-linejoin="miter" stroke-opacity="1" flood-color="rgb(0, 0, 0)" dominant-baseline="auto" marker-start="none" x="0px" marker-mid="none" y="0px">
<defs>
<linearGradient x1="562.3105" gradientUnits="userSpaceOnUse" x2="712.9666" y1="-534.6671" y2="-494.6671" id="linearGradient1" spreadMethod="reflect">
              <stop stop-opacity="1" stop-color="rgb(232,238,247)" offset="0%"/>
              <stop stop-opacity="1" stop-color="rgb(183,201,227)" offset="100%"/>
            </linearGradient>
            <linearGradient x1="732.9666" gradientUnits="userSpaceOnUse" x2="883.6226" y1="-534.6671" y2="-494.6671" id="linearGradient2" spreadMethod="reflect">
              <stop stop-opacity="1" stop-color="rgb(232,238,247)" offset="0%"/>
              <stop stop-opacity="1" stop-color="rgb(183,201,227)" offset="100%"/>
            </linearGradient>
            <clipPath clipPathUnits="userSpaceOnUse" id="clipPath1">
              <path d="M0 0 L995 0 L995 935 L0 935 L0 0 Z"/>
            </clipPath>
            <clipPath clipPathUnits="userSpaceOnUse" id="clipPath2">
              <path d="M-15 -940 L980 -940 L980 -5 L-15 -5 L-15 -940 Z"/>
            </clipPath>
            <clipPath clipPathUnits="userSpaceOnUse" id="clipPath3">
              <path d="M-929.6265 -401.5264 L65.3735 -401.5264 L65.3735 533.4736 L-929.6265 533.4736 L-929.6265 -401.5264 Z"/>
            </clipPath>
          </defs>
<linearGradient gradientTransform="matrix(1 0 0 1 -370.2002 -614.5742)" x1="370.2002" x2="409.4502" gradientUnits="userSpaceOnUse" y1="655.0938" y2="655.0938" id="svg1.SVGID_1_">
	<stop offset="0" style="stop-color:#4D4D4D"/>
	<stop offset="0.0558" style="stop-color:#5F5F5F"/>
	<stop offset="0.2103" style="stop-color:#8D8D8D"/>
	<stop offset="0.3479" style="stop-color:#AEAEAE"/>
	<stop offset="0.4623" style="stop-color:#C2C2C2"/>
	<stop offset="0.5394" style="stop-color:#C9C9C9"/>
	<stop offset="0.6247" style="stop-color:#C5C5C5"/>
	<stop offset="0.7072" style="stop-color:#BABABA"/>
	<stop offset="0.7885" style="stop-color:#A6A6A6"/>
	<stop offset="0.869" style="stop-color:#8B8B8B"/>
	<stop offset="0.9484" style="stop-color:#686868"/>
	<stop offset="1" style="stop-color:#4D4D4D"/>
</linearGradient>
<path fill="url(#svg1.SVGID_1_)" d="M19.625,37.613C8.787,37.613,0,35.738,0,33.425v10c0,2.313,8.787,4.188,19.625,4.188  c10.839,0,19.625-1.875,19.625-4.188v-10C39.25,35.738,30.464,37.613,19.625,37.613z"/>
<linearGradient gradientTransform="matrix(1 0 0 1 -370.2002 -614.5742)" x1="370.2002" x2="409.4502" gradientUnits="userSpaceOnUse" y1="649.0938" y2="649.0938" id="svg1.SVGID_2_">
	<stop offset="0" style="stop-color:#B3B3B3"/>
	<stop offset="0.0171" style="stop-color:#B6B6B6"/>
	<stop offset="0.235" style="stop-color:#D7D7D7"/>
	<stop offset="0.4168" style="stop-color:#EBEBEB"/>
	<stop offset="0.5394" style="stop-color:#F2F2F2"/>
	<stop offset="0.6579" style="stop-color:#EEEEEE"/>
	<stop offset="0.7724" style="stop-color:#E3E3E3"/>
	<stop offset="0.8853" style="stop-color:#CFCFCF"/>
	<stop offset="0.9965" style="stop-color:#B4B4B4"/>
	<stop offset="1" style="stop-color:#B3B3B3"/>
</linearGradient>
<path fill="url(#svg1.SVGID_2_)" d="M19.625,37.613c10.839,0,19.625-1.875,19.625-4.188l-1.229-2c0,2.168-8.235,3.927-18.396,3.927  c-9.481,0-17.396-1.959-18.396-3.927l-1.229,2C0,35.738,8.787,37.613,19.625,37.613z"/>
<linearGradient gradientTransform="matrix(1 0 0 1 -370.2002 -614.5742)" x1="371.4297" x2="408.2217" gradientUnits="userSpaceOnUse" y1="646" y2="646" id="svg1.SVGID_3_">
	<stop offset="0" style="stop-color:#C9C9C9"/>
	<stop offset="1" style="stop-color:#808080"/>
</linearGradient>
<ellipse rx="18.396" fill="url(#svg1.SVGID_3_)" ry="3.926" cx="19.625" cy="31.425"/>
<linearGradient gradientTransform="matrix(1 0 0 1 -370.2002 -614.5742)" x1="370.2002" x2="409.4502" gradientUnits="userSpaceOnUse" y1="641.0938" y2="641.0938" id="svg1.SVGID_4_">
	<stop offset="0" style="stop-color:#4D4D4D"/>
	<stop offset="0.0558" style="stop-color:#5F5F5F"/>
	<stop offset="0.2103" style="stop-color:#8D8D8D"/>
	<stop offset="0.3479" style="stop-color:#AEAEAE"/>
	<stop offset="0.4623" style="stop-color:#C2C2C2"/>
	<stop offset="0.5394" style="stop-color:#C9C9C9"/>
	<stop offset="0.6247" style="stop-color:#C5C5C5"/>
	<stop offset="0.7072" style="stop-color:#BABABA"/>
	<stop offset="0.7885" style="stop-color:#A6A6A6"/>
	<stop offset="0.869" style="stop-color:#8B8B8B"/>
	<stop offset="0.9484" style="stop-color:#686868"/>
	<stop offset="1" style="stop-color:#4D4D4D"/>
</linearGradient>
<path fill="url(#svg1.SVGID_4_)" d="M19.625,23.613C8.787,23.613,0,21.738,0,19.425v10c0,2.313,8.787,4.188,19.625,4.188  c10.839,0,19.625-1.875,19.625-4.188v-10C39.25,21.738,30.464,23.613,19.625,23.613z"/>
<linearGradient gradientTransform="matrix(1 0 0 1 -370.2002 -614.5742)" x1="370.2002" x2="409.4502" gradientUnits="userSpaceOnUse" y1="635.0938" y2="635.0938" id="svg1.SVGID_5_">
	<stop offset="0" style="stop-color:#B3B3B3"/>
	<stop offset="0.0171" style="stop-color:#B6B6B6"/>
	<stop offset="0.235" style="stop-color:#D7D7D7"/>
	<stop offset="0.4168" style="stop-color:#EBEBEB"/>
	<stop offset="0.5394" style="stop-color:#F2F2F2"/>
	<stop offset="0.6579" style="stop-color:#EEEEEE"/>
	<stop offset="0.7724" style="stop-color:#E3E3E3"/>
	<stop offset="0.8853" style="stop-color:#CFCFCF"/>
	<stop offset="0.9965" style="stop-color:#B4B4B4"/>
	<stop offset="1" style="stop-color:#B3B3B3"/>
</linearGradient>
<path fill="url(#svg1.SVGID_5_)" d="M19.625,23.613c10.839,0,19.625-1.875,19.625-4.188l-1.229-2c0,2.168-8.235,3.926-18.396,3.926  c-9.481,0-17.396-1.959-18.396-3.926l-1.229,2C0,21.738,8.787,23.613,19.625,23.613z"/>
<linearGradient gradientTransform="matrix(1 0 0 1 -370.2002 -614.5742)" x1="371.4297" x2="408.2217" gradientUnits="userSpaceOnUse" y1="632" y2="632" id="svg1.SVGID_6_">
	<stop offset="0" style="stop-color:#C9C9C9"/>
	<stop offset="1" style="stop-color:#808080"/>
</linearGradient>
<ellipse rx="18.396" fill="url(#svg1.SVGID_6_)" ry="3.926" cx="19.625" cy="17.426"/>
<linearGradient gradientTransform="matrix(1 0 0 1 -370.2002 -614.5742)" x1="370.2002" x2="409.4502" gradientUnits="userSpaceOnUse" y1="627.5938" y2="627.5938" id="svg1.SVGID_7_">
	<stop offset="0" style="stop-color:#4D4D4D"/>
	<stop offset="0.0558" style="stop-color:#5F5F5F"/>
	<stop offset="0.2103" style="stop-color:#8D8D8D"/>
	<stop offset="0.3479" style="stop-color:#AEAEAE"/>
	<stop offset="0.4623" style="stop-color:#C2C2C2"/>
	<stop offset="0.5394" style="stop-color:#C9C9C9"/>
	<stop offset="0.6247" style="stop-color:#C5C5C5"/>
	<stop offset="0.7072" style="stop-color:#BABABA"/>
	<stop offset="0.7885" style="stop-color:#A6A6A6"/>
	<stop offset="0.869" style="stop-color:#8B8B8B"/>
	<stop offset="0.9484" style="stop-color:#686868"/>
	<stop offset="1" style="stop-color:#4D4D4D"/>
</linearGradient>
<path fill="url(#svg1.SVGID_7_)" d="M19.625,10.113C8.787,10.113,0,8.238,0,5.925v10c0,2.313,8.787,4.188,19.625,4.188  c10.839,0,19.625-1.875,19.625-4.188v-10C39.25,8.238,30.464,10.113,19.625,10.113z"/>
<linearGradient gradientTransform="matrix(1 0 0 1 -370.2002 -614.5742)" x1="370.2002" x2="409.4502" gradientUnits="userSpaceOnUse" y1="621.5938" y2="621.5938" id="svg1.SVGID_8_">
	<stop offset="0" style="stop-color:#B3B3B3"/>
	<stop offset="0.0171" style="stop-color:#B6B6B6"/>
	<stop offset="0.235" style="stop-color:#D7D7D7"/>
	<stop offset="0.4168" style="stop-color:#EBEBEB"/>
	<stop offset="0.5394" style="stop-color:#F2F2F2"/>
	<stop offset="0.6579" style="stop-color:#EEEEEE"/>
	<stop offset="0.7724" style="stop-color:#E3E3E3"/>
	<stop offset="0.8853" style="stop-color:#CFCFCF"/>
	<stop offset="0.9965" style="stop-color:#B4B4B4"/>
	<stop offset="1" style="stop-color:#B3B3B3"/>
</linearGradient>
<path fill="url(#svg1.SVGID_8_)" d="M19.625,10.113c10.839,0,19.625-1.875,19.625-4.188l-1.229-2c0,2.168-8.235,3.926-18.396,3.926  c-9.481,0-17.396-1.959-18.396-3.926L0,5.925C0,8.238,8.787,10.113,19.625,10.113z"/>
<linearGradient gradientTransform="matrix(1 0 0 1 -370.2002 -614.5742)" x1="371.4297" x2="408.2217" gradientUnits="userSpaceOnUse" y1="618.5" y2="618.5" id="svg1.SVGID_9_">
	<stop offset="0" style="stop-color:#C9C9C9"/>
	<stop offset="1" style="stop-color:#808080"/>
</linearGradient>
<ellipse rx="18.396" fill="url(#svg1.SVGID_9_)" ry="3.926" cx="19.625" cy="3.926"/>
<path fill="#FFFFFF" d="M31.291,46.792c0,0-4.313,0.578-7.249,0.694  C20.917,47.613,15,47.613,15,47.613l-2.443-10.279l-0.119-2.283l-1.231-1.842L9.789,23.024l-0.082-0.119L9.3,20.715l-1.45-1.44  L5.329,8.793c0,0,5.296,0.882,7.234,1.07s8.375,0.25,8.375,0.25l3,9.875l-0.25,1.313l1.063,2.168l2.312,9.644l-0.375,1.875  l1.627,2.193L31.291,46.792z" enable-background="new    " opacity="0.24"/>
</svg>
      </g>
    </g>
    <g text-rendering="geometricPrecision" stroke-miterlimit="1.45" shape-rendering="geometricPrecision" font-family="sans-serif" transform="matrix(1,0,0,1,15,940)" stroke-linecap="butt">
      <text x="932.3442" xml:space="preserve" y="-538.4483" clip-path="url(#clipPath2)" stroke="none"> </text>
      <text x="932.3442" xml:space="preserve" y="-524.4796" clip-path="url(#clipPath2)" stroke="none"> </text>
      <text x="932.3442" xml:space="preserve" y="-510.5108" clip-path="url(#clipPath2)" stroke="none"> </text>
      <text x="932.3442" xml:space="preserve" y="-496.5421" clip-path="url(#clipPath2)" stroke="none"> </text>
      <text x="905.6226" xml:space="preserve" y="-482.5733" clip-path="url(#clipPath2)" stroke="none">Database</text>
    </g>
    <g fill="url(#linearGradient2)" text-rendering="geometricPrecision" shape-rendering="geometricPrecision" transform="matrix(1,0,0,1,15,940)" stroke="url(#linearGradient2)">
      <path d="M737.9666 -534.6671 L878.6226 -534.6671 Q888.6226 -514.6671 878.6226 -494.6671 L737.9666 -494.6671 Q727.9666 -514.6671 737.9666 -534.6671 Z" stroke="none" clip-path="url(#clipPath2)"/>
    </g>
    <g text-rendering="geometricPrecision" stroke-miterlimit="1.45" shape-rendering="geometricPrecision" transform="matrix(1,0,0,1,15,940)" stroke-linecap="butt">
      <path fill="none" d="M737.9666 -534.6671 L878.6226 -534.6671 Q888.6226 -514.6671 878.6226 -494.6671 L737.9666 -494.6671 Q727.9666 -514.6671 737.9666 -534.6671 Z" clip-path="url(#clipPath2)"/>
      <path fill="none" d="M878.6226 -534.6671 Q868.6226 -514.6671 878.6226 -494.6671" clip-path="url(#clipPath2)"/>
      <text x="757.5084" xml:space="preserve" y="-510.5108" clip-path="url(#clipPath2)" font-family="sans-serif" stroke="none">Initial Processing</text>
    </g>
    <g text-rendering="geometricPrecision" stroke-miterlimit="1.45" shape-rendering="geometricPrecision" transform="matrix(1,0,0,1,15,940)" stroke-linecap="butt">
      <path fill="none" d="M522.3105 -169.6183 L542.3105 -169.6183 L542.3105 -514.6671 L554.2715 -514.6671" clip-path="url(#clipPath2)"/>
      <path d="M562.2715 -514.6671 L550.2715 -519.6671 L553.2715 -514.6671 L550.2715 -509.6671 Z" clip-path="url(#clipPath2)" stroke="none"/>
      <path fill="none" d="M522.3105 -514.6671 L554.2715 -514.6671" clip-path="url(#clipPath2)"/>
      <path d="M562.2715 -514.6671 L550.2715 -519.6671 L553.2715 -514.6671 L550.2715 -509.6671 Z" clip-path="url(#clipPath2)" stroke="none"/>
      <path fill="none" d="M522.3105 -592.0754 L542.3105 -592.0754 L542.3105 -514.6671 L554.2715 -514.6671" clip-path="url(#clipPath2)"/>
      <path d="M562.2715 -514.6671 L550.2715 -519.6671 L553.2715 -514.6671 L550.2715 -509.6671 Z" clip-path="url(#clipPath2)" stroke="none"/>
      <path fill="none" d="M522.3105 -900.467 L542.3105 -900.467 L542.3105 -514.6671 L554.2715 -514.6671" clip-path="url(#clipPath2)"/>
      <path d="M562.2715 -514.6671 L550.2715 -519.6671 L553.2715 -514.6671 L550.2715 -509.6671 Z" clip-path="url(#clipPath2)" stroke="none"/>
      <path fill="none" d="M290.8936 -60.1091 L310.8546 -60.1091 L310.8546 -169.6183 L464.815 -169.6183" clip-path="url(#clipPath2)"/>
      <path d="M472.815 -169.6183 L460.815 -174.6183 L463.815 -169.6183 L460.815 -164.6183 Z" clip-path="url(#clipPath2)" stroke="none"/>
      <path fill="none" d="M290.8546 -278.8187 L310.8546 -278.8187 L310.8546 -169.6183 L464.815 -169.6183" clip-path="url(#clipPath2)"/>
      <path d="M472.815 -169.6183 L460.815 -174.6183 L463.815 -169.6183 L460.815 -164.6183 Z" clip-path="url(#clipPath2)" stroke="none"/>
      <path fill="none" d="M290.8546 -169.6183 L464.8102 -169.6183" clip-path="url(#clipPath2)"/>
      <path d="M472.8102 -169.6183 L460.8102 -174.6183 L463.8102 -169.6183 L460.8102 -164.6183 Z" clip-path="url(#clipPath2)" stroke="none"/>
      <path fill="none" d="M432.8546 -358.3191 L452.8546 -358.3191 L452.8546 -502.8151 L464.8155 -502.8151" clip-path="url(#clipPath2)"/>
      <path d="M472.8155 -502.8151 L460.8155 -507.8151 L463.8155 -502.8151 L460.8155 -497.8151 Z" clip-path="url(#clipPath2)" stroke="none"/>
      <path fill="none" d="M432.8936 -467.119 L452.8546 -467.119 L452.8546 -502.8151 L464.8155 -502.8151" clip-path="url(#clipPath2)"/>
      <path d="M472.8155 -502.8151 L460.8155 -507.8151 L463.8155 -502.8151 L460.8155 -497.8151 Z" clip-path="url(#clipPath2)" stroke="none"/>
      <path fill="none" d="M290.8936 -427.419 L330.8546 -427.419 L330.8546 -526.519 L464.8199 -526.519" clip-path="url(#clipPath2)"/>
      <path d="M472.8199 -526.519 L460.8199 -531.519 L463.8199 -526.519 L460.8199 -521.519 Z" clip-path="url(#clipPath2)" stroke="none"/>
      <path fill="none" d="M290.8936 -427.419 L330.8546 -427.419 L330.8546 -378.019 L363.3463 -378.019" clip-path="url(#clipPath2)"/>
      <path d="M371.3463 -378.019 L359.3463 -383.019 L362.3463 -378.019 L359.3463 -373.019 Z" clip-path="url(#clipPath2)" stroke="none"/>
      <path fill="none" d="M290.8936 -427.419 L330.8546 -427.419 L330.8546 -447.419 L363.3463 -447.419" clip-path="url(#clipPath2)"/>
      <path d="M371.3463 -447.419 L359.3463 -452.419 L362.3463 -447.419 L359.3463 -442.419 Z" clip-path="url(#clipPath2)" stroke="none"/>
      <path fill="none" d="M432.8546 -585.9191 L452.8546 -585.9191 L452.8546 -592.0754 L464.8155 -592.0754" clip-path="url(#clipPath2)"/>
      <path d="M472.8155 -592.0754 L460.8155 -597.0754 L463.8155 -592.0754 L460.8155 -587.0754 Z" clip-path="url(#clipPath2)" stroke="none"/>
      <path fill="none" d="M290.8941 -665.019 L452.8546 -665.019 L452.8546 -592.0754 L464.8155 -592.0754" clip-path="url(#clipPath2)"/>
      <path d="M472.8155 -592.0754 L460.8155 -597.0754 L463.8155 -592.0754 L460.8155 -587.0754 Z" clip-path="url(#clipPath2)" stroke="none"/>
      <path fill="none" d="M290.8936 -546.2191 L310.8546 -546.2191 L310.8546 -566.2191 L363.3563 -566.2191" clip-path="url(#clipPath2)"/>
      <path d="M371.3563 -566.2191 L359.3563 -571.2191 L362.3563 -566.2191 L359.3563 -561.2191 Z" clip-path="url(#clipPath2)" stroke="none"/>
      <path fill="none" d="M432.8546 -744.119 L452.8546 -744.119 L452.8546 -888.6151 L464.8155 -888.6151" clip-path="url(#clipPath2)"/>
      <path d="M472.8155 -888.6151 L460.8155 -893.6151 L463.8155 -888.6151 L460.8155 -883.6151 Z" clip-path="url(#clipPath2)" stroke="none"/>
      <path fill="none" d="M432.8546 -852.9191 L452.8546 -852.9191 L452.8546 -888.6151 L464.8155 -888.6151" clip-path="url(#clipPath2)"/>
      <path d="M472.8155 -888.6151 L460.8155 -893.6151 L463.8155 -888.6151 L460.8155 -883.6151 Z" clip-path="url(#clipPath2)" stroke="none"/>
      <path fill="none" d="M302.1327 -801.3441 L330.8546 -801.3441 L330.8546 -763.819 L363.3463 -763.819" clip-path="url(#clipPath2)"/>
      <path d="M371.3463 -763.819 L359.3463 -768.819 L362.3463 -763.819 L359.3463 -758.819 Z" clip-path="url(#clipPath2)" stroke="none"/>
      <path fill="none" d="M302.1327 -801.3441 L330.8546 -801.3441 L330.8546 -912.319 L464.8199 -912.3191" clip-path="url(#clipPath2)"/>
      <path d="M472.8199 -912.3191 L460.8199 -917.3191 L463.8199 -912.3191 L460.8199 -907.3191 Z" clip-path="url(#clipPath2)" stroke="none"/>
      <path fill="none" d="M302.1327 -801.3441 L330.8546 -801.3441 L330.8546 -833.2191 L363.3463 -833.2191" clip-path="url(#clipPath2)"/>
      <path d="M371.3463 -833.2191 L359.3463 -838.2191 L362.3463 -833.2191 L359.3463 -828.2191 Z" clip-path="url(#clipPath2)" stroke="none"/>
      <path fill="none" d="M157.6046 -516.519 L177.6046 -516.519 L177.6046 -60.1091 L200.8241 -60.1091" clip-path="url(#clipPath2)"/>
      <path d="M208.8241 -60.1091 L196.8241 -65.1091 L199.8241 -60.1091 L196.8241 -55.1091 Z" clip-path="url(#clipPath2)" stroke="none"/>
      <path fill="none" d="M157.6046 -516.519 L177.6046 -516.519 L177.6046 -169.6183 L200.8546 -169.6183" clip-path="url(#clipPath2)"/>
      <path d="M208.8546 -169.6183 L196.8546 -174.6183 L199.8546 -169.6183 L196.8546 -164.6183 Z" clip-path="url(#clipPath2)" stroke="none"/>
      <path fill="none" d="M157.6046 -516.519 L177.6046 -516.519 L177.6046 -278.8187 L200.8546 -278.8187" clip-path="url(#clipPath2)"/>
      <path d="M208.8546 -278.8187 L196.8546 -283.8187 L199.8546 -278.8187 L196.8546 -273.8187 Z" clip-path="url(#clipPath2)" stroke="none"/>
      <path fill="none" d="M157.6046 -516.519 L177.6046 -516.519 L177.6046 -338.619 L363.3385 -338.619" clip-path="url(#clipPath2)"/>
      <path d="M371.3385 -338.619 L359.3385 -343.619 L362.3385 -338.619 L359.3385 -333.619 Z" clip-path="url(#clipPath2)" stroke="none"/>
      <path fill="none" d="M157.6046 -516.519 L177.6046 -516.519 L177.6046 -427.419 L200.8241 -427.419" clip-path="url(#clipPath2)"/>
      <path d="M208.8241 -427.419 L196.8241 -432.419 L199.8241 -427.419 L196.8241 -422.419 Z" clip-path="url(#clipPath2)" stroke="none"/>
      <path fill="none" d="M157.6046 -516.519 L177.6046 -516.519 L177.6046 -486.8191 L363.3385 -486.8191" clip-path="url(#clipPath2)"/>
      <path d="M371.3385 -486.8191 L359.3385 -491.8191 L362.3385 -486.8191 L359.3385 -481.8191 Z" clip-path="url(#clipPath2)" stroke="none"/>
      <path fill="none" d="M157.6046 -516.519 L177.6046 -516.519 L177.6046 -605.619 L363.3385 -605.619" clip-path="url(#clipPath2)"/>
      <path d="M371.3385 -605.619 L359.3385 -610.619 L362.3385 -605.619 L359.3385 -600.619 Z" clip-path="url(#clipPath2)" stroke="none"/>
      <path fill="none" d="M157.6046 -516.519 L177.6046 -516.519 L177.6046 -546.2191 L200.8241 -546.2191" clip-path="url(#clipPath2)"/>
      <path d="M208.8241 -546.2191 L196.8241 -551.2191 L199.8241 -546.2191 L196.8241 -541.2191 Z" clip-path="url(#clipPath2)" stroke="none"/>
      <path fill="none" d="M157.6046 -516.519 L177.6046 -516.519 L177.6046 -665.019 L200.8241 -665.019" clip-path="url(#clipPath2)"/>
      <path d="M208.8241 -665.019 L196.8241 -670.019 L199.8241 -665.019 L196.8241 -660.019 Z" clip-path="url(#clipPath2)" stroke="none"/>
      <path fill="none" d="M157.6046 -516.519 L177.6046 -516.519 L177.6046 -724.4191 L363.3385 -724.4191" clip-path="url(#clipPath2)"/>
      <path d="M371.3385 -724.4191 L359.3385 -729.4191 L362.3385 -724.4191 L359.3385 -719.4191 Z" clip-path="url(#clipPath2)" stroke="none"/>
      <path fill="none" d="M157.6046 -516.519 L177.6046 -516.519 L177.6046 -801.3441 L189.5655 -801.3441" clip-path="url(#clipPath2)"/>
      <path d="M197.5655 -801.3441 L185.5655 -806.3441 L188.5655 -801.3441 L185.5655 -796.3441 Z" clip-path="url(#clipPath2)" stroke="none"/>
      <path fill="none" d="M157.6046 -516.519 L177.6046 -516.519 L177.6046 -872.619 L363.3385 -872.619" clip-path="url(#clipPath2)"/>
      <path d="M371.3385 -872.619 L359.3385 -877.619 L362.3385 -872.619 L359.3385 -867.619 Z" clip-path="url(#clipPath2)" stroke="none"/>
      <path fill="none" d="M712.9666 -514.6671 L724.9275 -514.6671" clip-path="url(#clipPath2)"/>
      <path d="M732.9275 -514.6671 L720.9275 -519.6671 L723.9275 -514.6671 L720.9275 -509.6671 Z" clip-path="url(#clipPath2)" stroke="none"/>
      <path fill="none" d="M883.6226 -514.6671 L906.5962 -514.6671" clip-path="url(#clipPath2)"/>
      <path d="M914.5962 -514.6671 L902.5962 -519.6671 L905.5962 -514.6671 L902.5962 -509.6671 Z" clip-path="url(#clipPath2)" stroke="none"/>
    </g>
  </g>
</svg>
