<?xml version="1.0" encoding="UTF-8"?><svg xmlns="http://www.w3.org/2000/svg" xmlns:xlink="http://www.w3.org/1999/xlink" fill-opacity="1" color-rendering="auto" color-interpolation="auto" text-rendering="auto" stroke="black" stroke-linecap="square" width="244" stroke-miterlimit="10" shape-rendering="auto" stroke-opacity="1" fill="black" stroke-dasharray="none" font-weight="normal" stroke-width="1" height="815" font-family="'Dialog'" font-style="normal" stroke-linejoin="miter" font-size="12px" stroke-dashoffset="0" image-rendering="auto">
  <!--Generated by ySVG 2.5-->
  <defs id="genericDefs"/>
  <g>
    <g fill="white" text-rendering="geometricPrecision" shape-rendering="geometricPrecision" transform="translate(-413,8)" stroke="white">
      <rect x="413" width="244" height="815" y="-8" clip-path="url(#clipPath2)" stroke="none"/>
    </g>
    <g text-rendering="geometricPrecision" shape-rendering="geometricPrecision" transform="matrix(1,0,0,1,101.6385,36.669)">
      <g clip-path="url(#clipPath3)">
        <svg xml:space="preserve" opacity="1" writing-mode="lr-tb" stop-color="rgb(0, 0, 0)" shape-rendering="auto" glyph-orientation-horizontal="0deg" color-profile="auto" lighting-color="rgb(255, 255, 255)" color="rgb(0, 0, 0)" font-weight="400" alignment-baseline="auto" font-style="normal" version="1.1" color-interpolation-filters="linearrgb" text-anchor="start" stroke-linecap="butt" color-interpolation="srgb" font-variant="normal" word-spacing="normal" fill-opacity="1" text-rendering="auto" clip-path="none" text-decoration="none" letter-spacing="normal" viewBox="-0.875 -0.887 41 48" glyph-orientation-vertical="auto" display="inline" font-size-adjust="none" overflow="visible" fill="rgb(0, 0, 0)" font-stretch="normal" stroke-dasharray="none" stroke-miterlimit="4" stop-opacity="1" color-rendering="auto" font-size="12" pointer-events="visiblepainted" mask="none" direction="ltr" baseline-shift="baseline" enable-background="new -0.875 -0.887 41 48" fill-rule="nonzero" image-rendering="auto" stroke-dashoffset="0" width="41px" marker-end="none" clip="auto" cursor="auto" stroke="none" filter="none" visibility="visible" kerning="auto" stroke-width="1" font-family="&quot;Arial&quot;,&quot;Helvetica&quot;,sans-serif" flood-opacity="1" clip-rule="nonzero" src="none" height="48px" unicode-bidi="normal" stroke-linejoin="miter" stroke-opacity="1" flood-color="rgb(0, 0, 0)" dominant-baseline="auto" marker-start="none" x="0px" marker-mid="none" y="0px">
<defs>
<clipPath clipPathUnits="userSpaceOnUse" id="clipPath1">
              <path d="M0 0 L244 0 L244 815 L0 815 L0 0 Z"/>
            </clipPath>
            <clipPath clipPathUnits="userSpaceOnUse" id="clipPath2">
              <path d="M413 -8 L657 -8 L657 807 L413 807 L413 -8 Z"/>
            </clipPath>
            <clipPath clipPathUnits="userSpaceOnUse" id="clipPath3">
              <path d="M-101.6385 -36.669 L142.3615 -36.669 L142.3615 778.331 L-101.6385 778.331 L-101.6385 -36.669 Z"/>
            </clipPath>
            <clipPath clipPathUnits="userSpaceOnUse" id="clipPath4">
              <path d="M-88.257 -731.3926 L155.743 -731.3926 L155.743 83.6074 L-88.257 83.6074 L-88.257 -731.3926 Z"/>
            </clipPath>
            <clipPath clipPathUnits="userSpaceOnUse" id="clipPath5">
              <path d="M703.6815 -83.8828 L703.6815 160.1172 L-111.3185 160.1172 L-111.3185 -83.8828 L703.6815 -83.8828 Z"/>
            </clipPath>
          </defs>
<linearGradient gradientTransform="matrix(1 0 0 -1 -642.8008 -939.4756)" x1="642.8008" x2="682.0508" gradientUnits="userSpaceOnUse" y1="-979.1445" y2="-979.1445" id="svg1.SVGID_1_">
	<stop offset="0" style="stop-color:#3C89C9"/>
	<stop offset="0.1482" style="stop-color:#60A6DD"/>
	<stop offset="0.3113" style="stop-color:#81C1F0"/>
	<stop offset="0.4476" style="stop-color:#95D1FB"/>
	<stop offset="0.5394" style="stop-color:#9CD7FF"/>
	<stop offset="0.636" style="stop-color:#98D4FD"/>
	<stop offset="0.7293" style="stop-color:#8DCAF6"/>
	<stop offset="0.8214" style="stop-color:#79BBEB"/>
	<stop offset="0.912" style="stop-color:#5EA5DC"/>
	<stop offset="1" style="stop-color:#3C89C9"/>
</linearGradient>
<path fill="url(#svg1.SVGID_1_)" d="M19.625,36.763C8.787,36.763,0,34.888,0,32.575v10c0,2.313,8.787,4.188,19.625,4.188  c10.839,0,19.625-1.875,19.625-4.188v-10C39.25,34.888,30.464,36.763,19.625,36.763z"/>
<linearGradient gradientTransform="matrix(1 0 0 -1 -642.8008 -939.4756)" x1="642.8008" x2="682.0508" gradientUnits="userSpaceOnUse" y1="-973.1445" y2="-973.1445" id="svg1.SVGID_2_">
	<stop offset="0" style="stop-color:#9CD7FF"/>
	<stop offset="0.0039" style="stop-color:#9DD7FF"/>
	<stop offset="0.2273" style="stop-color:#BDE5FF"/>
	<stop offset="0.4138" style="stop-color:#D1EEFF"/>
	<stop offset="0.5394" style="stop-color:#D9F1FF"/>
	<stop offset="0.6155" style="stop-color:#D5EFFE"/>
	<stop offset="0.6891" style="stop-color:#C9E7FA"/>
	<stop offset="0.7617" style="stop-color:#B6DAF3"/>
	<stop offset="0.8337" style="stop-color:#9AC8EA"/>
	<stop offset="0.9052" style="stop-color:#77B0DD"/>
	<stop offset="0.9754" style="stop-color:#4D94CF"/>
	<stop offset="1" style="stop-color:#3C89C9"/>
</linearGradient>
<path fill="url(#svg1.SVGID_2_)" d="M19.625,36.763c10.839,0,19.625-1.875,19.625-4.188l-1.229-2c0,2.168-8.235,3.927-18.396,3.927  c-9.481,0-17.396-1.959-18.396-3.927l-1.229,2C0,34.888,8.787,36.763,19.625,36.763z"/>
<path fill="#3C89C9" d="M19.625,26.468c10.16,0,19.625,2.775,19.625,2.775c-0.375,2.721-5.367,5.438-19.554,5.438  c-12.125,0-18.467-2.484-19.541-4.918C-0.127,29.125,9.465,26.468,19.625,26.468z"/>
<linearGradient gradientTransform="matrix(1 0 0 -1 -642.8008 -939.4756)" x1="642.8008" x2="682.0508" gradientUnits="userSpaceOnUse" y1="-965.6948" y2="-965.6948" id="svg1.SVGID_3_">
	<stop offset="0" style="stop-color:#3C89C9"/>
	<stop offset="0.1482" style="stop-color:#60A6DD"/>
	<stop offset="0.3113" style="stop-color:#81C1F0"/>
	<stop offset="0.4476" style="stop-color:#95D1FB"/>
	<stop offset="0.5394" style="stop-color:#9CD7FF"/>
	<stop offset="0.636" style="stop-color:#98D4FD"/>
	<stop offset="0.7293" style="stop-color:#8DCAF6"/>
	<stop offset="0.8214" style="stop-color:#79BBEB"/>
	<stop offset="0.912" style="stop-color:#5EA5DC"/>
	<stop offset="1" style="stop-color:#3C89C9"/>
</linearGradient>
<path fill="url(#svg1.SVGID_3_)" d="M19.625,23.313C8.787,23.313,0,21.438,0,19.125v10c0,2.313,8.787,4.188,19.625,4.188  c10.839,0,19.625-1.875,19.625-4.188v-10C39.25,21.438,30.464,23.313,19.625,23.313z"/>
<linearGradient gradientTransform="matrix(1 0 0 -1 -642.8008 -939.4756)" x1="642.8008" x2="682.0508" gradientUnits="userSpaceOnUse" y1="-959.6948" y2="-959.6948" id="svg1.SVGID_4_">
	<stop offset="0" style="stop-color:#9CD7FF"/>
	<stop offset="0.0039" style="stop-color:#9DD7FF"/>
	<stop offset="0.2273" style="stop-color:#BDE5FF"/>
	<stop offset="0.4138" style="stop-color:#D1EEFF"/>
	<stop offset="0.5394" style="stop-color:#D9F1FF"/>
	<stop offset="0.6155" style="stop-color:#D5EFFE"/>
	<stop offset="0.6891" style="stop-color:#C9E7FA"/>
	<stop offset="0.7617" style="stop-color:#B6DAF3"/>
	<stop offset="0.8337" style="stop-color:#9AC8EA"/>
	<stop offset="0.9052" style="stop-color:#77B0DD"/>
	<stop offset="0.9754" style="stop-color:#4D94CF"/>
	<stop offset="1" style="stop-color:#3C89C9"/>
</linearGradient>
<path fill="url(#svg1.SVGID_4_)" d="M19.625,23.313c10.839,0,19.625-1.875,19.625-4.188l-1.229-2c0,2.168-8.235,3.926-18.396,3.926  c-9.481,0-17.396-1.959-18.396-3.926l-1.229,2C0,21.438,8.787,23.313,19.625,23.313z"/>
<path fill="#3C89C9" d="M19.476,13.019c10.161,0,19.625,2.775,19.625,2.775c-0.375,2.721-5.367,5.438-19.555,5.438  c-12.125,0-18.467-2.485-19.541-4.918C-0.277,15.674,9.316,13.019,19.476,13.019z"/>
<linearGradient gradientTransform="matrix(1 0 0 -1 -642.8008 -939.4756)" x1="642.8008" x2="682.0508" gradientUnits="userSpaceOnUse" y1="-952.4946" y2="-952.4946" id="svg1.SVGID_5_">
	<stop offset="0" style="stop-color:#3C89C9"/>
	<stop offset="0.1482" style="stop-color:#60A6DD"/>
	<stop offset="0.3113" style="stop-color:#81C1F0"/>
	<stop offset="0.4476" style="stop-color:#95D1FB"/>
	<stop offset="0.5394" style="stop-color:#9CD7FF"/>
	<stop offset="0.636" style="stop-color:#98D4FD"/>
	<stop offset="0.7293" style="stop-color:#8DCAF6"/>
	<stop offset="0.8214" style="stop-color:#79BBEB"/>
	<stop offset="0.912" style="stop-color:#5EA5DC"/>
	<stop offset="1" style="stop-color:#3C89C9"/>
</linearGradient>
<path fill="url(#svg1.SVGID_5_)" d="M19.625,10.113C8.787,10.113,0,8.238,0,5.925v10c0,2.313,8.787,4.188,19.625,4.188  c10.839,0,19.625-1.875,19.625-4.188v-10C39.25,8.238,30.464,10.113,19.625,10.113z"/>
<linearGradient gradientTransform="matrix(1 0 0 -1 -642.8008 -939.4756)" x1="642.8008" x2="682.0508" gradientUnits="userSpaceOnUse" y1="-946.4946" y2="-946.4946" id="svg1.SVGID_6_">
	<stop offset="0" style="stop-color:#9CD7FF"/>
	<stop offset="0.0039" style="stop-color:#9DD7FF"/>
	<stop offset="0.2273" style="stop-color:#BDE5FF"/>
	<stop offset="0.4138" style="stop-color:#D1EEFF"/>
	<stop offset="0.5394" style="stop-color:#D9F1FF"/>
	<stop offset="0.6155" style="stop-color:#D5EFFE"/>
	<stop offset="0.6891" style="stop-color:#C9E7FA"/>
	<stop offset="0.7617" style="stop-color:#B6DAF3"/>
	<stop offset="0.8337" style="stop-color:#9AC8EA"/>
	<stop offset="0.9052" style="stop-color:#77B0DD"/>
	<stop offset="0.9754" style="stop-color:#4D94CF"/>
	<stop offset="1" style="stop-color:#3C89C9"/>
</linearGradient>
<path fill="url(#svg1.SVGID_6_)" d="M19.625,10.113c10.839,0,19.625-1.875,19.625-4.188l-1.229-2c0,2.168-8.235,3.926-18.396,3.926  c-9.481,0-17.396-1.959-18.396-3.926L0,5.925C0,8.238,8.787,10.113,19.625,10.113z"/>
<linearGradient gradientTransform="matrix(1 0 0 -1 -642.8008 -939.4756)" x1="644.0293" x2="680.8223" gradientUnits="userSpaceOnUse" y1="-943.4014" y2="-943.4014" id="svg1.SVGID_7_">
	<stop offset="0" style="stop-color:#9CD7FF"/>
	<stop offset="1" style="stop-color:#3C89C9"/>
</linearGradient>
<ellipse rx="18.396" fill="url(#svg1.SVGID_7_)" ry="3.926" cx="19.625" cy="3.926"/>
<path fill="#FFFFFF" d="M31.04,45.982c0,0-4.354,0.664-7.29,0.781  c-3.125,0.125-8.952,0-8.952,0l-2.384-10.292l0.044-2.108l-1.251-1.154L9.789,23.024l-0.082-0.119L9.5,20.529l-1.65-1.254  L5.329,8.793c0,0,4.213,0.903,7.234,1.07s8.375,0.25,8.375,0.25l3,9.875l-0.25,1.313l1.063,2.168l2.312,9.645l-0.521,1.416  l1.46,1.834L31.04,45.982z" enable-background="new    " opacity="0.24"/>
</svg>
      </g>
    </g>
    <g text-rendering="geometricPrecision" stroke-miterlimit="1.45" shape-rendering="geometricPrecision" font-family="sans-serif" transform="matrix(1,0,0,1,-413,8)" stroke-linecap="butt">
      <text x="495.165" xml:space="preserve" y="20.7279" clip-path="url(#clipPath2)" stroke="none">Event Source</text>
    </g>
    <g fill="rgb(245,245,245)" text-rendering="geometricPrecision" shape-rendering="geometricPrecision" transform="matrix(1,0,0,1,-413,8)" stroke="rgb(245,245,245)">
      <rect x="428" y="117.5469" clip-path="url(#clipPath2)" width="214" rx="4" ry="4" height="487.4531" stroke="none"/>
      <rect x="428" y="117.5469" clip-path="url(#clipPath2)" fill="rgb(235,235,235)" width="214" height="21.4531" stroke="none"/>
    </g>
    <g font-size="15px" stroke-linecap="butt" transform="matrix(1,0,0,1,-413,8)" text-rendering="geometricPrecision" font-family="sans-serif" shape-rendering="geometricPrecision" stroke-miterlimit="1.45">
      <text x="584.9658" xml:space="preserve" y="133.4688" clip-path="url(#clipPath2)" stroke="none">League</text>
      <rect x="428" y="117.5469" clip-path="url(#clipPath2)" fill="none" width="214" stroke-dasharray="6,2" rx="4" ry="4" height="487.4531"/>
    </g>
    <g fill="rgb(255,204,0)" text-rendering="geometricPrecision" shape-rendering="geometricPrecision" transform="matrix(1,0,0,1,-413,8)" stroke="rgb(255,204,0)">
      <path d="M443 154 L627 154 L581 217 L489 217 Z" fill-rule="evenodd" clip-path="url(#clipPath2)" stroke="none"/>
    </g>
    <g text-rendering="geometricPrecision" stroke-miterlimit="1.45" shape-rendering="geometricPrecision" font-family="sans-serif" transform="matrix(1,0,0,1,-413,8)" stroke-linecap="butt">
      <text x="500.6084" xml:space="preserve" y="189.6562" clip-path="url(#clipPath2)" stroke="none">Event Filter</text>
      <path fill="none" d="M443 154 L627 154 L581 217 L489 217 Z" clip-path="url(#clipPath2)" fill-rule="evenodd"/>
    </g>
    <g fill="rgb(255,204,0)" text-rendering="geometricPrecision" shape-rendering="geometricPrecision" transform="matrix(1,0,0,1,-413,8)" stroke="rgb(255,204,0)">
      <rect x="459" width="152" height="24" y="253" clip-path="url(#clipPath2)" stroke="none"/>
    </g>
    <g text-rendering="geometricPrecision" stroke-miterlimit="1.45" shape-rendering="geometricPrecision" font-family="sans-serif" transform="matrix(1,0,0,1,-413,8)" stroke-linecap="butt">
      <text x="486.9443" xml:space="preserve" y="269.1562" clip-path="url(#clipPath2)" stroke="none">Timestep Buffer</text>
      <rect fill="none" x="459" width="152" height="24" y="253" clip-path="url(#clipPath2)"/>
    </g>
    <g fill="rgb(255,204,0)" text-rendering="geometricPrecision" shape-rendering="geometricPrecision" transform="matrix(1,0,0,1,-413,8)" stroke="rgb(255,204,0)">
      <rect x="459" width="152" height="24" y="313" clip-path="url(#clipPath2)" stroke="none"/>
    </g>
    <g text-rendering="geometricPrecision" stroke-miterlimit="1.45" shape-rendering="geometricPrecision" font-family="sans-serif" transform="matrix(1,0,0,1,-413,8)" stroke-linecap="butt">
      <text x="479.1016" xml:space="preserve" y="329.1562" clip-path="url(#clipPath2)" stroke="none">Timestamp Events</text>
      <rect fill="none" x="459" width="152" height="24" y="313" clip-path="url(#clipPath2)"/>
    </g>
    <g fill="rgb(255,204,0)" text-rendering="geometricPrecision" shape-rendering="geometricPrecision" transform="matrix(1,0,0,1,-413,8)" stroke="rgb(255,204,0)">
      <rect x="479" width="112" height="94" y="373" clip-path="url(#clipPath2)" stroke="none"/>
    </g>
    <g text-rendering="geometricPrecision" stroke-miterlimit="1.45" shape-rendering="geometricPrecision" font-family="sans-serif" transform="matrix(1,0,0,1,-413,8)" stroke-linecap="butt">
      <text x="518.5439" xml:space="preserve" y="424.1562" clip-path="url(#clipPath2)" stroke="none">Rules</text>
      <rect fill="none" x="479" width="112" height="94" y="373" clip-path="url(#clipPath2)"/>
    </g>
    <g fill="rgb(255,204,0)" text-rendering="geometricPrecision" shape-rendering="geometricPrecision" transform="matrix(1,0,0,1,-413,8)" stroke="rgb(255,204,0)">
      <rect x="479" width="112" height="87" y="503" clip-path="url(#clipPath2)" stroke="none"/>
    </g>
    <g text-rendering="geometricPrecision" stroke-miterlimit="1.45" shape-rendering="geometricPrecision" font-family="sans-serif" transform="matrix(1,0,0,1,-413,8)" stroke-linecap="butt">
      <text x="504.124" xml:space="preserve" y="550.6562" clip-path="url(#clipPath2)" stroke="none">New State</text>
      <rect fill="none" x="479" width="112" height="87" y="503" clip-path="url(#clipPath2)"/>
    </g>
    <g text-rendering="geometricPrecision" shape-rendering="geometricPrecision" transform="matrix(1,0,0,1,88.257,731.3926)">
      <g clip-path="url(#clipPath4)">
        <svg xml:space="preserve" opacity="1" writing-mode="lr-tb" stop-color="rgb(0, 0, 0)" shape-rendering="auto" glyph-orientation-horizontal="0deg" color-profile="auto" lighting-color="rgb(255, 255, 255)" color="rgb(0, 0, 0)" font-weight="400" alignment-baseline="auto" font-style="normal" version="1.1" color-interpolation-filters="linearrgb" text-anchor="start" stroke-linecap="butt" color-interpolation="srgb" font-variant="normal" word-spacing="normal" fill-opacity="1" text-rendering="auto" clip-path="none" text-decoration="none" letter-spacing="normal" viewBox="-0.435 -0.869 68 60" glyph-orientation-vertical="auto" display="inline" font-size-adjust="none" overflow="visible" fill="rgb(0, 0, 0)" font-stretch="normal" stroke-dasharray="none" stroke-miterlimit="4" stop-opacity="1" color-rendering="auto" font-size="12" pointer-events="visiblepainted" mask="none" direction="ltr" baseline-shift="baseline" enable-background="new -0.435 -0.869 68 60" fill-rule="nonzero" image-rendering="auto" stroke-dashoffset="0" width="68px" marker-end="none" clip="auto" cursor="auto" stroke="none" filter="none" visibility="visible" kerning="auto" stroke-width="1" font-family="&quot;Arial&quot;,&quot;Helvetica&quot;,sans-serif" flood-opacity="1" clip-rule="nonzero" src="none" height="60px" unicode-bidi="normal" stroke-linejoin="miter" stroke-opacity="1" flood-color="rgb(0, 0, 0)" dominant-baseline="auto" marker-start="none" x="0px" marker-mid="none" y="0px">
<defs>
</defs>
<path fill="#666666" d="M52.462,30.881c-0.021,0-0.037,0.01-0.059,0.012c-0.021-0.002-0.037-0.012-0.059-0.012h-18.5v-7.555  c0-0.414-0.335-0.75-0.75-0.75c-0.414,0-0.75,0.336-0.75,0.75v7.555h-18.5c-0.02,0-0.037,0.01-0.057,0.012  c-0.02-0.002-0.037-0.012-0.057-0.012c-0.414,0-0.75,0.336-0.75,0.75v3.834c0,0.414,0.336,0.75,0.75,0.75s0.75-0.336,0.75-0.75  v-3.084H51.71v3.084c0,0.414,0.336,0.75,0.75,0.75s0.75-0.336,0.75-0.75v-3.834C53.212,31.217,52.876,30.881,52.462,30.881z"/>
<linearGradient gradientTransform="matrix(1 0 0 -1 -97.6001 -158.6377)" x1="130.7236" x2="130.7236" gradientUnits="userSpaceOnUse" y1="-184.1631" y2="-191.9565" id="svg2.SVGID_1_">
	<stop offset="0" style="stop-color:#9CD7FF"/>
	<stop offset="1" style="stop-color:#3C89C9"/>
</linearGradient>
<path fill="url(#svg2.SVGID_1_)" d="M36.296,29.976c-0.832,0-1.513-0.681-1.513-1.513v-1.424c0-0.832-0.681-1.513-1.513-1.513h-0.214  c-0.832,0-1.513,0.681-1.513,1.513v1.424c0,0.832-0.681,1.513-1.513,1.513h-2.499c-0.832,0-1.513,0.681-1.513,1.513v0.317  c0,0.832,0.681,1.513,1.513,1.513h11.187c0.832,0,1.513-0.681,1.513-1.513v-0.317c0-0.833-0.681-1.513-1.513-1.513H36.296z"/>
<linearGradient gradientTransform="matrix(1 0 0 1 -585.5996 -1982.4023)" x1="605.8877" x2="593.1709" gradientUnits="userSpaceOnUse" y1="2040.6665" y2="2040.6665" id="svg2.SVGID_2_">
	<stop offset="0" style="stop-color:#4D4D4D"/>
	<stop offset="1" style="stop-color:#999999"/>
</linearGradient>
<path fill="url(#svg2.SVGID_2_)" d="M20.205,57.452c0,0.519-3.619,0.752-6.627,0.752c-2.083,0-5.846-0.186-6.089-0.678  c0,0.238,0,0.806,0,0.89c0,0.389,2.573,0.661,6.084,0.661c3.511,0,6.632-0.344,6.632-0.729C20.205,58.264,20.205,57.7,20.205,57.452  z"/>
<path fill="#808080" d="M13.846,56.806c3.512,0,6.358,0.313,6.358,0.699s-2.846,0.763-6.358,0.763c-3.59,0-6.358-0.375-6.358-0.763  S10.335,56.806,13.846,56.806z"/>
<linearGradient gradientTransform="matrix(1 0 0 1 -585.5996 -1982.4023)" x1="600.833" x2="598.1563" gradientUnits="userSpaceOnUse" y1="2037.4702" y2="2037.4702" id="svg2.SVGID_3_">
	<stop offset="0" style="stop-color:#999999"/>
	<stop offset="0.0417" style="stop-color:#8D8D8D"/>
	<stop offset="0.1617" style="stop-color:#717171"/>
	<stop offset="0.2821" style="stop-color:#5D5D5D"/>
	<stop offset="0.4021" style="stop-color:#515151"/>
	<stop offset="0.5212" style="stop-color:#4D4D4D"/>
	<stop offset="0.6202" style="stop-color:#565656"/>
	<stop offset="0.7817" style="stop-color:#6E6E6E"/>
	<stop offset="0.9844" style="stop-color:#969696"/>
	<stop offset="1" style="stop-color:#999999"/>
</linearGradient>
<path fill="url(#svg2.SVGID_3_)" d="M15.215,57.657c0,0-0.792,0.053-1.339,0.053s-1.338-0.053-1.338-0.053v-5.231h2.677V57.657z"/>
<radialGradient gradientTransform="matrix(1.15 0 0 1 -526.6041 -1982.4023)" id="svg2.SVGID_4_" r="12.8975" cx="465.1113" gradientUnits="userSpaceOnUse" cy="2023.4497">
	<stop offset="0" style="stop-color:#F2F2F2"/>
	<stop offset="1" style="stop-color:#666666"/>
</radialGradient>
<path fill="url(#svg2.SVGID_4_)" d="M0.065,36.888c0-0.59,0.482-1.071,1.072-1.071H26.98c0.589,0,1.071,0.481,1.071,1.071v16.108  c0,0.589-0.482,1.07-1.071,1.07H1.137c-0.59,0.002-1.072-0.481-1.072-1.07V36.888z"/>
<path stroke-linecap="round" fill="none" stroke-linejoin="round" d="  M0.065,36.888c0-0.59,0.482-1.071,1.072-1.071H26.98c0.589,0,1.071,0.481,1.071,1.071v16.108c0,0.589-0.482,1.07-1.071,1.07H1.137  c-0.59,0.002-1.072-0.481-1.072-1.07V36.888z" stroke="#666666" stroke-width="0.1305" stroke-miterlimit="10"/>
<radialGradient gradientTransform="matrix(1.1935 0 0 1 -509.6013 -1982.4023)" gradientUnits="userSpaceOnUse" r="28.5715" cx="439.1309" id="svg2.SVGID_5_" cy="2019.0845" fx="461.6079" fy="2015.234">
	<stop offset="0" style="stop-color:#4D4D4D"/>
	<stop offset="1" style="stop-color:#999999"/>
</radialGradient>
<path fill="url(#svg2.SVGID_5_)" d="M0.613,37.436c0-0.591,0.482-1.072,1.071-1.072h24.871c0.589,0,1.071,0.481,1.071,1.072v14.893  c0,0.59-0.482,1.072-1.071,1.072H1.685c-0.589,0-1.071-0.482-1.071-1.072V37.436z"/>
<radialGradient gradientTransform="matrix(1.1923 0 0 1 -510.0601 -1982.4023)" id="svg2.SVGID_6_" r="18.3134" cx="440.0439" gradientUnits="userSpaceOnUse" cy="2019.1304">
	<stop offset="0" style="stop-color:#9CD7FF"/>
	<stop offset="1" style="stop-color:#3C89C9"/>
</radialGradient>
<path fill="url(#svg2.SVGID_6_)" d="M0.917,37.679c0-0.59,0.482-1.071,1.072-1.071h24.262c0.589,0,1.071,0.481,1.071,1.071v14.406  c0,0.588-0.482,1.069-1.071,1.069H1.989c-0.59,0-1.072-0.481-1.072-1.069V37.679z"/>
<path fill="#F2F2F2" opacity="0.24" d="M0.917,49.11V37.679c0-0.59,0.482-1.071,1.072-1.071h24.262c0.589,0,1.071,0.481,1.071,1.071  v7.252l-12.407,2.646c-0.57,0.146-1.52,0.293-2.107,0.326L0.917,49.11z"/>
<linearGradient gradientTransform="matrix(1 0 0 1 -585.5996 -1982.4023)" x1="644.3887" x2="631.6719" gradientUnits="userSpaceOnUse" y1="2040.6665" y2="2040.6665" id="svg2.SVGID_7_">
	<stop offset="0" style="stop-color:#4D4D4D"/>
	<stop offset="1" style="stop-color:#999999"/>
</linearGradient>
<path fill="url(#svg2.SVGID_7_)" d="M58.706,57.452c0,0.518-3.621,0.752-6.627,0.752c-2.084,0-5.848-0.186-6.09-0.678  c0,0.237,0,0.805,0,0.889c0,0.389,2.572,0.662,6.084,0.662s6.633-0.344,6.633-0.729C58.706,58.263,58.706,57.7,58.706,57.452z"/>
<path fill="#808080" d="M52.347,56.805c3.512,0,6.357,0.313,6.357,0.699s-2.847,0.762-6.357,0.762c-3.59,0-6.357-0.373-6.357-0.762  C45.989,57.118,48.837,56.805,52.347,56.805z"/>
<linearGradient gradientTransform="matrix(1 0 0 1 -585.5996 -1982.4023)" x1="639.333" x2="636.6553" gradientUnits="userSpaceOnUse" y1="2037.4683" y2="2037.4683" id="svg2.SVGID_8_">
	<stop offset="0" style="stop-color:#999999"/>
	<stop offset="0.0417" style="stop-color:#8D8D8D"/>
	<stop offset="0.1617" style="stop-color:#717171"/>
	<stop offset="0.2821" style="stop-color:#5D5D5D"/>
	<stop offset="0.4021" style="stop-color:#515151"/>
	<stop offset="0.5212" style="stop-color:#4D4D4D"/>
	<stop offset="0.6202" style="stop-color:#565656"/>
	<stop offset="0.7817" style="stop-color:#6E6E6E"/>
	<stop offset="0.9844" style="stop-color:#969696"/>
	<stop offset="1" style="stop-color:#999999"/>
</linearGradient>
<path fill="url(#svg2.SVGID_8_)" d="M53.716,57.657c0,0-0.791,0.052-1.34,0.052c-0.547,0-1.338-0.052-1.338-0.052v-5.232h2.678V57.657z"/>
<radialGradient gradientTransform="matrix(1.15 0 0 1 -526.6041 -1982.4023)" id="svg2.SVGID_9_" r="12.8975" cx="498.5898" gradientUnits="userSpaceOnUse" cy="2023.4487">
	<stop offset="0" style="stop-color:#F2F2F2"/>
	<stop offset="1" style="stop-color:#666666"/>
</radialGradient>
<path fill="url(#svg2.SVGID_9_)" d="M38.566,36.887c0-0.59,0.481-1.072,1.071-1.072h25.844c0.589,0,1.07,0.482,1.07,1.072v16.107  c0,0.59-0.481,1.072-1.07,1.072H39.638c-0.59,0-1.071-0.482-1.071-1.072V36.887z"/>
<path stroke-linecap="round" fill="none" stroke-linejoin="round" d="  M38.566,36.887c0-0.59,0.481-1.072,1.071-1.072h25.844c0.589,0,1.07,0.482,1.07,1.072v16.107c0,0.59-0.481,1.072-1.07,1.072H39.638  c-0.59,0-1.071-0.482-1.071-1.072V36.887z" stroke="#666666" stroke-width="0.1305" stroke-miterlimit="10"/>
<radialGradient gradientTransform="matrix(1.1935 0 0 1 -509.6013 -1982.4023)" gradientUnits="userSpaceOnUse" r="28.5697" cx="471.3896" id="svg2.SVGID_10_" cy="2019.0845" fx="493.8652" fy="2015.2343">
	<stop offset="0" style="stop-color:#4D4D4D"/>
	<stop offset="1" style="stop-color:#999999"/>
</radialGradient>
<path fill="url(#svg2.SVGID_10_)" d="M39.114,37.434c0-0.59,0.482-1.072,1.071-1.072h24.87c0.589,0,1.07,0.482,1.07,1.072v14.895  c0,0.589-0.481,1.07-1.07,1.07h-24.87c-0.589,0-1.071-0.481-1.071-1.07V37.434z"/>
<radialGradient gradientTransform="matrix(1.1923 0 0 1 -510.0601 -1982.4023)" id="svg2.SVGID_11_" r="18.3139" cx="472.334" gradientUnits="userSpaceOnUse" cy="2019.1294">
	<stop offset="0" style="stop-color:#9CD7FF"/>
	<stop offset="1" style="stop-color:#3C89C9"/>
</radialGradient>
<path fill="url(#svg2.SVGID_11_)" d="M39.419,37.678c0-0.59,0.481-1.072,1.07-1.072h24.264c0.588,0,1.07,0.482,1.07,1.072v14.406  c0,0.588-0.482,1.07-1.07,1.07H40.489c-0.589,0-1.07-0.482-1.07-1.07V37.678z"/>
<path fill="#F2F2F2" opacity="0.24" d="M39.419,49.108v-11.43c0-0.59,0.481-1.072,1.07-1.072h24.264c0.588,0,1.07,0.482,1.07,1.072  v7.252l-12.408,2.645c-0.57,0.146-1.52,0.295-2.106,0.326L39.419,49.108z"/>
<linearGradient gradientTransform="matrix(1 0 0 1 -585.5996 -1982.4023)" x1="624.8936" x2="612.1787" gradientUnits="userSpaceOnUse" y1="2004.9155" y2="2004.9155" id="svg2.SVGID_12_">
	<stop offset="0" style="stop-color:#4D4D4D"/>
	<stop offset="1" style="stop-color:#999999"/>
</linearGradient>
<path fill="url(#svg2.SVGID_12_)" d="M39.212,21.701c0,0.518-3.621,0.752-6.626,0.752c-2.083,0-5.847-0.186-6.089-0.678  c0,0.238,0,0.805,0,0.889c0,0.389,2.573,0.662,6.084,0.662c3.51,0,6.631-0.344,6.631-0.729  C39.212,22.513,39.212,21.949,39.212,21.701z"/>
<path fill="#808080" d="M32.854,21.055c3.511,0,6.358,0.313,6.358,0.699c0,0.386-2.848,0.762-6.358,0.762  c-3.589,0-6.358-0.374-6.358-0.762C26.496,21.367,29.342,21.055,32.854,21.055z"/>
<linearGradient gradientTransform="matrix(1 0 0 1 -585.5996 -1982.4023)" x1="619.8379" x2="617.1611" gradientUnits="userSpaceOnUse" y1="2001.7183" y2="2001.7183" id="svg2.SVGID_13_">
	<stop offset="0" style="stop-color:#999999"/>
	<stop offset="0.0417" style="stop-color:#8D8D8D"/>
	<stop offset="0.1617" style="stop-color:#717171"/>
	<stop offset="0.2821" style="stop-color:#5D5D5D"/>
	<stop offset="0.4021" style="stop-color:#515151"/>
	<stop offset="0.5212" style="stop-color:#4D4D4D"/>
	<stop offset="0.6202" style="stop-color:#565656"/>
	<stop offset="0.7817" style="stop-color:#6E6E6E"/>
	<stop offset="0.9844" style="stop-color:#969696"/>
	<stop offset="1" style="stop-color:#999999"/>
</linearGradient>
<path fill="url(#svg2.SVGID_13_)" d="M34.222,21.906c0,0-0.791,0.052-1.338,0.052c-0.547,0-1.338-0.052-1.338-0.052v-5.232h2.677  L34.222,21.906L34.222,21.906z"/>
<radialGradient gradientTransform="matrix(1.15 0 0 1 -526.6041 -1982.4023)" id="svg2.SVGID_14_" r="12.8975" cx="481.6387" gradientUnits="userSpaceOnUse" cy="1987.6978">
	<stop offset="0" style="stop-color:#F2F2F2"/>
	<stop offset="1" style="stop-color:#666666"/>
</radialGradient>
<path fill="url(#svg2.SVGID_14_)" d="M19.072,1.137c0-0.59,0.482-1.072,1.071-1.072h25.843c0.589,0,1.071,0.482,1.071,1.072v16.108  c0,0.589-0.482,1.071-1.071,1.071H20.145c-0.589,0-1.071-0.482-1.071-1.071L19.072,1.137L19.072,1.137z"/>
<path stroke-linecap="round" fill="none" stroke-linejoin="round" d="  M19.072,1.137c0-0.59,0.482-1.072,1.071-1.072h25.843c0.589,0,1.071,0.482,1.071,1.072v16.108c0,0.589-0.482,1.071-1.071,1.071  H20.145c-0.589,0-1.071-0.482-1.071-1.071L19.072,1.137L19.072,1.137z" stroke="#666666" stroke-width="0.1305" stroke-miterlimit="10"/>
<radialGradient gradientTransform="matrix(1.1935 0 0 1 -509.6013 -1982.4023)" gradientUnits="userSpaceOnUse" r="28.5689" cx="455.0566" id="svg2.SVGID_15_" cy="1983.3345" fx="477.5316" fy="1979.4844">
	<stop offset="0" style="stop-color:#4D4D4D"/>
	<stop offset="1" style="stop-color:#999999"/>
</radialGradient>
<path fill="url(#svg2.SVGID_15_)" d="M19.621,1.685c0-0.59,0.482-1.072,1.072-1.072h24.87c0.589,0,1.071,0.482,1.071,1.072v14.894  c0,0.589-0.482,1.071-1.071,1.071h-24.87c-0.589,0-1.072-0.482-1.072-1.071V1.685z"/>
<radialGradient gradientTransform="matrix(1.1923 0 0 1 -510.0601 -1982.4023)" id="svg2.SVGID_16_" r="18.3134" cx="455.9854" gradientUnits="userSpaceOnUse" cy="1983.3784">
	<stop offset="0" style="stop-color:#9CD7FF"/>
	<stop offset="1" style="stop-color:#3C89C9"/>
</radialGradient>
<path fill="url(#svg2.SVGID_16_)" d="M19.924,1.928c0-0.59,0.482-1.072,1.072-1.072h24.262c0.589,0,1.07,0.482,1.07,1.072v14.406  c0,0.588-0.481,1.07-1.07,1.07H20.997c-0.589,0-1.072-0.482-1.072-1.07V1.928z"/>
<path fill="#F2F2F2" opacity="0.24" d="M19.924,13.358V1.928c0-0.59,0.482-1.072,1.072-1.072h24.262c0.589,0,1.07,0.482,1.07,1.072  V9.18l-12.408,2.646c-0.569,0.146-1.519,0.294-2.106,0.326L19.924,13.358z"/>
</svg>
      </g>
    </g>
    <g text-rendering="geometricPrecision" stroke-miterlimit="1.45" shape-rendering="geometricPrecision" transform="matrix(1,0,0,1,-413,8)" stroke-linecap="butt">
      <path fill="none" d="M535 76.4528 L535 146.0052" clip-path="url(#clipPath2)"/>
      <path d="M535 154.0052 L540 142.0052 L535 145.0052 L530 142.0052 Z" clip-path="url(#clipPath2)" stroke="none"/>
      <path fill="none" d="M535 216.9817 L535 245" clip-path="url(#clipPath2)"/>
      <path d="M535 253 L540 241 L535 244 L530 241 Z" clip-path="url(#clipPath2)" stroke="none"/>
      <path fill="none" d="M535 277 L535 305" clip-path="url(#clipPath2)"/>
      <path d="M535 313 L540 301 L535 304 L530 301 Z" clip-path="url(#clipPath2)" stroke="none"/>
      <path fill="none" d="M535 337 L535 365" clip-path="url(#clipPath2)"/>
      <path d="M535 373 L540 361 L535 364 L530 361 Z" clip-path="url(#clipPath2)" stroke="none"/>
      <path fill="none" d="M535 467 L535 495" clip-path="url(#clipPath2)"/>
      <path d="M535 503 L540 491 L535 494 L530 491 Z" clip-path="url(#clipPath2)" stroke="none"/>
      <path fill="none" d="M535 590 L535 716.2472" clip-path="url(#clipPath2)"/>
      <path d="M535 724.2472 L540 712.2472 L535 715.2472 L530 712.2472 Z" clip-path="url(#clipPath2)" stroke="none"/>
    </g>
    <g text-rendering="geometricPrecision" stroke-miterlimit="1.45" shape-rendering="geometricPrecision" font-family="sans-serif" transform="matrix(0,-1,1,0,83.8828,703.6815)" stroke-linecap="butt">
      <text x="2" xml:space="preserve" y="13.1406" clip-path="url(#clipPath5)" stroke="none">Notify Users</text>
    </g>
  </g>
</svg>
